<svg width="350" height="66" viewBox="0 0 350 66" fill="none" xmlns="http://www.w3.org/2000/svg">
<path d="M17.472 17.68H9.344V48.848H4.864V17.68H0V13.904H4.864V11.472C4.864 7.67469 5.824 4.88002 7.744 3.08802C9.70667 1.29602 12.864 0.400024 17.216 0.400024V4.24002C14.3147 4.24002 12.2667 4.79469 11.072 5.90403C9.92 7.01336 9.344 8.86936 9.344 11.472V13.904H17.472V17.68Z" fill="black"/>
<path d="M22.6045 7.31202C21.7085 7.31202 20.9405 6.99202 20.3005 6.35202C19.6605 5.71202 19.3405 4.92269 19.3405 3.98402C19.3405 3.04536 19.6605 2.27736 20.3005 1.68002C20.9405 1.04002 21.7085 0.720024 22.6045 0.720024C23.5005 0.720024 24.2685 1.04002 24.9085 1.68002C25.5485 2.27736 25.8685 3.04536 25.8685 3.98402C25.8685 4.92269 25.5485 5.71202 24.9085 6.35202C24.2685 6.99202 23.5005 7.31202 22.6045 7.31202ZM24.8445 13.904V48.848H20.3645V13.904H24.8445Z" fill="black"/>
<path d="M45.4855 13.392C48.7708 13.392 51.6295 14.16 54.0615 15.696C56.4935 17.232 58.2428 19.1734 59.3095 21.52V13.904H63.7895V49.744C63.7895 52.944 63.0855 55.7814 61.6775 58.256C60.3122 60.7307 58.3922 62.6294 55.9175 63.952C53.4428 65.3174 50.6268 66 47.4695 66C42.9895 66 39.2562 64.9334 36.2695 62.8C33.3255 60.6667 31.4908 57.7654 30.7655 54.096H35.1815C35.9495 56.528 37.4002 58.4694 39.5335 59.92C41.7095 61.3707 44.3548 62.096 47.4695 62.096C49.7308 62.096 51.7575 61.6054 53.5495 60.624C55.3415 59.6854 56.7495 58.2774 57.7735 56.4C58.7975 54.5227 59.3095 52.304 59.3095 49.744V41.104C58.2002 43.4934 56.4295 45.4774 53.9975 47.056C51.6082 48.592 48.7708 49.36 45.4855 49.36C42.2855 49.36 39.4055 48.6134 36.8455 47.12C34.3282 45.6267 32.3442 43.5147 30.8935 40.784C29.4855 38.0534 28.7815 34.896 28.7815 31.312C28.7815 27.728 29.4855 24.592 30.8935 21.904C32.3442 19.1734 34.3282 17.0827 36.8455 15.632C39.4055 14.1387 42.2855 13.392 45.4855 13.392ZM59.3095 31.376C59.3095 28.56 58.7335 26.0854 57.5815 23.952C56.4295 21.8187 54.8508 20.176 52.8455 19.024C50.8828 17.872 48.7068 17.296 46.3175 17.296C43.8428 17.296 41.6242 17.8507 39.6615 18.96C37.6988 20.0694 36.1415 21.6907 34.9895 23.824C33.8802 25.9147 33.3255 28.4107 33.3255 31.312C33.3255 34.1707 33.8802 36.688 34.9895 38.864C36.1415 40.9974 37.6988 42.64 39.6615 43.792C41.6242 44.9014 43.8428 45.456 46.3175 45.456C48.7068 45.456 50.8828 44.88 52.8455 43.728C54.8508 42.576 56.4295 40.9334 57.5815 38.8C58.7335 36.6667 59.3095 34.192 59.3095 31.376Z" fill="black"/>
<path d="M111.457 13.264C115.553 13.264 118.881 14.5654 121.441 17.168C124.044 19.728 125.345 23.4614 125.345 28.368V48.848H120.929V28.88C120.929 25.0827 120.012 22.1814 118.177 20.176C116.342 18.1707 113.846 17.168 110.689 17.168C107.404 17.168 104.78 18.256 102.817 20.432C100.854 22.608 99.873 25.7654 99.873 29.904V48.848H95.457V28.88C95.457 25.0827 94.5397 22.1814 92.705 20.176C90.8703 18.1707 88.353 17.168 85.153 17.168C81.8677 17.168 79.2437 18.256 77.281 20.432C75.3183 22.608 74.337 25.7654 74.337 29.904V48.848H69.857V13.904H74.337V19.92C75.4463 17.744 77.025 16.1014 79.073 14.992C81.121 13.84 83.4037 13.264 85.921 13.264C88.9503 13.264 91.5957 13.9894 93.857 15.44C96.161 16.8907 97.825 19.024 98.849 21.84C99.7877 19.0667 101.388 16.9547 103.649 15.504C105.953 14.0107 108.556 13.264 111.457 13.264Z" fill="black"/>
<path d="M129.087 31.312C129.087 27.728 129.79 24.592 131.199 21.904C132.649 19.1734 134.633 17.0827 137.15 15.632C139.71 14.1387 142.59 13.392 145.79 13.392C149.118 13.392 151.977 14.16 154.367 15.696C156.798 17.232 158.548 19.1947 159.615 21.584V13.904H164.094V48.848H159.615V41.104C158.505 43.4934 156.734 45.4774 154.303 47.056C151.913 48.592 149.055 49.36 145.727 49.36C142.569 49.36 139.71 48.6134 137.15 47.12C134.633 45.6267 132.649 43.5147 131.199 40.784C129.79 38.0534 129.087 34.896 129.087 31.312ZM159.615 31.376C159.615 28.56 159.038 26.0854 157.886 23.952C156.734 21.8187 155.156 20.176 153.15 19.024C151.188 17.872 149.012 17.296 146.622 17.296C144.148 17.296 141.929 17.8507 139.966 18.96C138.004 20.0694 136.446 21.6907 135.294 23.824C134.185 25.9147 133.63 28.4107 133.63 31.312C133.63 34.1707 134.185 36.688 135.294 38.864C136.446 40.9974 138.004 42.64 139.966 43.792C141.929 44.9014 144.148 45.456 146.622 45.456C149.012 45.456 151.188 44.88 153.15 43.728C155.156 42.576 156.734 40.9334 157.886 38.8C159.038 36.6667 159.615 34.192 159.615 31.376Z" fill="black"/>
<path d="M187.98 21.584C189.09 19.2374 190.839 17.296 193.229 15.76C195.661 14.1814 198.54 13.392 201.868 13.392C205.026 13.392 207.863 14.1387 210.381 15.632C212.941 17.0827 214.924 19.1734 216.333 21.904C217.783 24.592 218.508 27.728 218.508 31.312C218.508 34.896 217.783 38.0534 216.333 40.784C214.924 43.5147 212.941 45.6267 210.381 47.12C207.863 48.6134 205.026 49.36 201.868 49.36C198.583 49.36 195.725 48.592 193.293 47.056C190.861 45.4774 189.09 43.5147 187.98 41.168V65.36H183.564V13.904H187.98V21.584ZM213.965 31.312C213.965 28.4107 213.388 25.9147 212.236 23.824C211.127 21.6907 209.591 20.0694 207.629 18.96C205.666 17.8507 203.447 17.296 200.973 17.296C198.583 17.296 196.386 17.872 194.381 19.024C192.418 20.176 190.861 21.8187 189.709 23.952C188.557 26.0854 187.98 28.56 187.98 31.376C187.98 34.192 188.557 36.6667 189.709 38.8C190.861 40.9334 192.418 42.576 194.381 43.728C196.386 44.88 198.583 45.456 200.973 45.456C203.447 45.456 205.666 44.9014 207.629 43.792C209.591 42.64 211.127 40.9974 212.236 38.864C213.388 36.688 213.965 34.1707 213.965 31.312Z" fill="black"/>
<path d="M227.072 1.48803V48.848H222.592V1.48803H227.072Z" fill="black"/>
<path d="M263.329 13.904V48.848H258.849V42.704C257.825 44.88 256.246 46.544 254.113 47.696C251.98 48.848 249.59 49.424 246.945 49.424C242.764 49.424 239.35 48.144 236.705 45.584C234.06 42.9814 232.737 39.2267 232.737 34.32V13.904H237.153V33.808C237.153 37.6054 238.092 40.5067 239.969 42.512C241.889 44.5174 244.492 45.52 247.777 45.52C251.148 45.52 253.836 44.4534 255.841 42.32C257.846 40.1867 258.849 37.0507 258.849 32.912V13.904H263.329Z" fill="black"/>
<path d="M284.053 13.392C287.338 13.392 290.197 14.16 292.629 15.696C295.061 17.232 296.81 19.1734 297.877 21.52V13.904H302.357V49.744C302.357 52.944 301.653 55.7814 300.245 58.256C298.88 60.7307 296.96 62.6294 294.485 63.952C292.01 65.3174 289.194 66 286.037 66C281.557 66 277.824 64.9334 274.837 62.8C271.893 60.6667 270.058 57.7654 269.333 54.096H273.749C274.517 56.528 275.968 58.4694 278.101 59.92C280.277 61.3707 282.922 62.096 286.037 62.096C288.298 62.096 290.325 61.6054 292.117 60.624C293.909 59.6854 295.317 58.2774 296.341 56.4C297.365 54.5227 297.877 52.304 297.877 49.744V41.104C296.768 43.4934 294.997 45.4774 292.565 47.056C290.176 48.592 287.338 49.36 284.053 49.36C280.853 49.36 277.973 48.6134 275.413 47.12C272.896 45.6267 270.912 43.5147 269.461 40.784C268.053 38.0534 267.349 34.896 267.349 31.312C267.349 27.728 268.053 24.592 269.461 21.904C270.912 19.1734 272.896 17.0827 275.413 15.632C277.973 14.1387 280.853 13.392 284.053 13.392ZM297.877 31.376C297.877 28.56 297.301 26.0854 296.149 23.952C294.997 21.8187 293.418 20.176 291.413 19.024C289.45 17.872 287.274 17.296 284.885 17.296C282.41 17.296 280.192 17.8507 278.229 18.96C276.266 20.0694 274.709 21.6907 273.557 23.824C272.448 25.9147 271.893 28.4107 271.893 31.312C271.893 34.1707 272.448 36.688 273.557 38.864C274.709 40.9974 276.266 42.64 278.229 43.792C280.192 44.9014 282.41 45.456 284.885 45.456C287.274 45.456 289.45 44.88 291.413 43.728C293.418 42.576 294.997 40.9334 296.149 38.8C297.301 36.6667 297.877 34.192 297.877 31.376Z" fill="black"/>
<path d="M310.664 7.31202C309.768 7.31202 309.001 6.99202 308.361 6.35202C307.72 5.71202 307.401 4.92269 307.401 3.98402C307.401 3.04536 307.72 2.27736 308.361 1.68002C309.001 1.04002 309.768 0.720024 310.664 0.720024C311.56 0.720024 312.328 1.04002 312.969 1.68002C313.609 2.27736 313.928 3.04536 313.928 3.98402C313.928 4.92269 313.609 5.71202 312.969 6.35202C312.328 6.99202 311.56 7.31202 310.664 7.31202ZM312.905 13.904V48.848H308.424V13.904H312.905Z" fill="black"/>
<path d="M335.273 13.264C339.455 13.264 342.868 14.5654 345.513 17.168C348.159 19.728 349.482 23.4614 349.482 28.368V48.848H345.065V28.88C345.065 25.0827 344.106 22.1814 342.186 20.176C340.308 18.1707 337.727 17.168 334.441 17.168C331.071 17.168 328.383 18.2347 326.378 20.368C324.372 22.5014 323.37 25.6374 323.37 29.776V48.848H318.889V13.904H323.37V19.856C324.479 17.7227 326.079 16.1014 328.169 14.992C330.26 13.84 332.628 13.264 335.273 13.264Z" fill="black"/>
</svg>
