<svg width="120" height="24" viewBox="0 0 120 24" fill="none" xmlns="http://www.w3.org/2000/svg">
<path d="M2.18601 5.63818C3.00572 5.63818 3.87097 5.14203 3.87097 4.01441C3.87097 3.11232 3.3245 2.48086 2.27709 2.48086C1.18414 2.48086 0.54659 3.24764 0.592129 3.96931V4.01441C0.637669 5.05182 1.3663 5.63818 2.18601 5.63818Z" fill="black" fill-opacity="0.3"/>
<path d="M40.8012 8.61497C40.7101 8.07372 41.6208 7.98351 41.5297 7.53246C41.4387 6.901 40.8922 6.901 40.5279 6.9461C38.4788 7.17162 38.0689 7.84819 37.8868 9.15623C37.7957 9.923 38.2966 10.5996 38.7975 11.1859C38.8431 11.8625 38.6609 13.0352 38.4332 14.253C38.2511 14.3432 38.1145 14.4786 38.0689 14.659C37.8868 15.3355 37.4769 17.3653 36.8394 19.0341C36.6573 19.3047 36.3841 19.6656 36.3841 19.8911C36.3841 19.9813 36.3841 20.0715 36.3841 20.1166C35.9287 20.9736 35.4278 21.6051 34.8358 21.6051C34.5626 21.6051 34.4715 20.8834 34.4715 19.9362C34.4715 18.2673 35.3367 13.6216 35.3367 12.6293C35.3367 11.3212 35.5644 10.1936 35.5644 9.11112C35.5644 8.66008 35.2456 8.52476 34.8358 8.52476C34.517 8.52476 34.3349 8.75028 34.0161 8.75028C32.6956 8.75028 32.5134 9.47196 32.5134 10.5545C32.5134 11.0055 32.5134 17.4104 32.4223 18.2222C32.3313 19.5754 31.5571 21.2442 30.1 21.2442C28.7794 21.2442 28.1419 19.4401 28.1419 17.5006C28.1419 15.7415 28.4606 13.5314 28.6883 12.7646C28.8249 12.3135 29.4169 10.2387 29.4169 9.96811C29.4169 9.47196 29.3714 9.33664 28.8249 9.33664C26.7302 9.38175 26.3204 9.56217 26.0016 10.6898C25.6829 11.9978 25.3186 14.1628 25.3186 16.2827C25.3186 16.4632 25.3186 16.6887 25.3186 16.8691C24.8177 18.4027 24.2712 20.1166 22.8596 20.2068C21.9033 20.2519 21.5845 17.8614 21.5845 15.3807C21.5845 10.4643 22.9962 5.68317 23.1783 0.766778C23.2239 0.315732 22.9051 0 22.3587 0C21.6301 0.0902091 21.4024 0.0451046 21.0836 0.0451046C20.5372 0.0451046 20.3095 0.270627 20.264 0.811882C19.8086 5.72828 18.8068 11.7272 18.8068 16.5083C18.8068 16.5534 18.8068 16.5534 18.8068 16.5985C18.3059 18.1771 17.7594 20.2068 16.2567 20.2971C15.3004 20.3422 14.9817 17.9516 14.9817 15.4709C14.9817 10.5545 16.3933 5.77338 16.5755 0.856987C16.621 0.405941 16.3022 0.0902091 15.7558 0.0902091C15.0272 0.0902091 14.7995 0.0451046 14.4352 0.0451046C13.8888 0.0451046 13.6611 0.270627 13.6156 0.811882C13.1602 5.72828 12.1584 11.7272 12.1584 16.5083C12.1584 16.5534 12.1584 16.5534 12.1584 16.5985C11.6575 18.1771 11.111 20.2068 9.60831 20.2971C8.65203 20.3422 8.33327 17.9516 8.33327 15.4709C8.33327 10.5545 9.74492 5.77338 9.92706 0.856987C9.9726 0.405941 9.65384 0.0902091 9.1074 0.0902091C8.33327 0.0902091 8.10559 0.0451046 7.74129 0.0451046C7.19485 0.0451046 6.96716 0.270627 6.92162 0.811882C6.46625 5.72828 5.46444 11.7272 5.46444 16.5083C5.46444 16.7338 5.46444 16.9593 5.46444 17.2299C5.00907 18.8086 4.32601 20.5226 3.46081 20.5226C3.05098 20.4775 2.73222 19.8911 2.73222 18.538C2.73222 16.0572 2.9599 12.6293 3.18759 10.0132C3.23313 9.69748 3.09652 9.38175 2.73222 9.38175C2.41346 9.33664 1.41165 9.24643 1.04735 9.24643C0.500907 9.24643 0.273222 9.56217 0.273222 10.1485V11.0506C0.318759 14.0726 0 16.4632 0 19.3048C0 21.3345 1.09289 22.7327 2.459 22.7327C3.91618 22.7327 5.05461 21.5149 5.82874 20.0715C6.23857 21.6051 7.0127 22.9582 8.56096 22.9582C10.0181 22.9582 11.4298 21.3796 12.3861 19.6205C12.7504 21.3345 13.5245 22.9582 15.2094 22.9582C16.6665 22.9582 18.0782 21.3796 19.0345 19.6205C19.3988 21.3345 20.1729 22.9582 21.8578 22.9582C23.2694 22.9582 24.6811 21.4247 25.6373 19.7558C26.1382 21.7855 27.2767 23.3191 29.4169 23.3191C31.1928 23.3191 31.6938 22.5974 32.8322 20.9736C33.1965 21.8757 33.3331 23.5897 34.3804 23.5897C35.8376 23.5897 37.0671 21.9208 37.8868 20.0264C38.752 21.5149 40.8467 22.5523 42.4405 22.5523C44.8995 22.5523 46.9942 20.7932 46.812 18.132C46.5843 14.5237 41.211 10.6447 40.8012 8.61497ZM41.4387 20.7481C40.7101 20.7481 39.5717 20.297 39.5261 19.3499C39.4806 18.8086 40.7556 18.538 41.211 18.2673C41.5753 18.0418 41.6664 17.8614 41.6664 17.7261C41.6208 17.4104 41.1654 17.1848 40.6645 17.1848C40.2547 17.1848 39.6627 17.3201 38.9797 17.7712C39.1163 17.1397 40.0726 13.8922 40.3002 12.3135C42.0762 13.6216 43.7155 16.5985 43.8977 18.8086C44.0343 20.5677 42.0306 20.7481 41.4387 20.7481Z" fill="black" fill-opacity="0.3"/>
<path d="M82.2399 5.63818C83.0596 5.63818 83.9249 5.14203 83.9249 4.01441C83.9249 3.11232 83.3784 2.48086 82.331 2.48086C81.2381 2.48086 80.6005 3.24764 80.646 3.96931V4.01441C80.6916 5.05182 81.4202 5.63818 82.2399 5.63818Z" fill="black" fill-opacity="0.3"/>
<path d="M108.56 23.4093C107.74 22.868 107.148 22.0111 107.285 18.4929C107.376 16.2377 107.831 13.1255 107.831 10.9153C107.831 9.92304 107.376 8.79542 106.101 8.79542C104.507 8.79542 102.185 12.043 101.456 13.4863C101.547 12.6293 101.821 10.1035 101.866 9.24647C101.912 8.38948 101.912 8.34438 100.409 8.34438C99.4071 8.34438 99.316 8.5248 99.316 8.88563C99.316 10.9604 99.1339 13.351 98.9517 15.7415C98.4053 16.9142 97.6767 18.087 96.6293 18.087C96.3106 18.087 95.9918 17.9968 95.7186 17.8614C96.174 17.1849 96.4927 15.6513 96.4927 14.8394C96.4927 13.5765 95.582 12.5842 94.307 12.5842C92.6221 12.5842 91.6203 13.7569 91.6203 15.3807C91.6203 16.6436 92.9409 18.087 93.9427 18.7635C93.3507 19.9362 92.1667 20.6579 90.8006 20.6579C88.8425 20.6579 88.1595 17.0947 88.1595 15.7866C88.1595 13.2608 89.0702 10.4192 92.0756 10.4192C94.1248 10.4192 94.1248 11.7723 94.99 11.7723C95.0811 11.7723 95.3543 11.637 95.3543 11.5017C95.3543 10.0132 92.9864 8.79542 91.7569 8.79542C87.5675 8.79542 84.6531 12.0881 84.6531 16.1926C84.6531 17.0045 84.7897 17.8614 85.0629 18.6733C84.6531 19.7107 84.1522 20.5226 83.5147 20.5226C83.1049 20.5226 82.7861 19.9362 82.7861 18.5831C82.7861 16.1024 83.0138 12.6744 83.2415 10.0584C83.287 9.74262 83.1504 9.42689 82.7861 9.42689C82.4673 9.38178 81.4655 9.29157 81.1012 9.29157C80.5548 9.29157 80.3271 9.6073 80.3271 10.1937V11.0958C80.3271 12.6744 80.236 14.0276 80.1905 15.3807C80.1449 15.4258 80.0994 15.516 80.0539 15.6062C79.553 16.9593 78.9154 20.703 77.4127 20.703C76.9574 20.703 76.0011 20.0716 76.0011 18.3125C76.0011 15.4709 76.9574 9.78772 77.094 8.79542C78.5512 8.47969 79.8262 8.5699 81.5566 8.07375C82.3307 7.84823 81.8754 6.94613 81.0101 7.03634C80.5092 7.08145 79.1431 7.17166 77.2306 7.03634C77.2761 5.54789 77.6404 4.6007 77.6404 3.06714V2.93183C77.6404 2.52589 77.4583 2.21016 77.0484 2.21016C76.2288 2.21016 74.9537 2.48078 74.9537 3.6084C74.9537 4.78112 74.726 5.81852 74.7716 6.99124C73.9519 7.03634 73.2233 6.81082 72.4037 6.81082C71.8117 6.81082 71.6751 7.89333 71.6751 8.29927C71.6751 8.75032 71.7206 9.06605 71.9938 9.06605C73.1323 9.06605 74.1341 8.88563 74.5894 8.84053C74.3617 11.8174 73.9975 13.4863 73.7698 15.5611C73.7698 15.6964 73.7242 15.8768 73.7242 16.0573C73.2233 17.6359 72.267 20.0716 71.4929 20.0716C71.1742 20.0716 70.7188 19.5754 70.7188 19.2146C70.7188 17.0045 70.9465 14.2531 71.5385 12.0429C71.6751 11.5919 71.9938 10.78 71.9938 10.2839C71.9938 9.69751 71.0375 9.38178 70.5366 9.38178C69.717 9.38178 69.7625 9.83283 69.4437 10.5545C68.8518 10.1035 68.7152 9.29157 67.1214 9.29157C64.207 9.29157 62.4311 13.9824 62.4311 16.9142C62.4311 17.4104 62.3855 17.681 62.3855 17.9516C62.3855 19.6205 61.4292 21.6953 60.4274 21.6953C59.5622 21.6953 59.289 19.3499 59.289 18.3576C59.289 16.9593 59.9265 13.8471 60.473 12.494C60.7006 11.9978 61.1105 11.4566 61.1105 10.9153C61.1105 10.2839 60.3819 9.24647 59.6533 9.24647C58.8336 9.24647 58.3327 9.69751 57.4675 9.69751C56.1014 9.69751 55.1907 8.84053 54.4165 8.84053C53.9156 8.84053 53.6424 9.15626 53.6424 9.6073C53.6424 10.8251 54.963 10.5996 54.6442 12.1332C54.3255 13.5765 53.3692 17.5006 52.8227 18.9891C52.7772 19.0342 52.7772 19.1244 52.7772 19.2146C52.7772 19.395 52.8227 19.5303 52.8683 19.6656C52.5495 20.2069 52.1852 20.5677 51.7299 20.5677C51.2745 20.5677 50.3182 19.9362 50.3182 18.1772C50.3182 15.3356 51.2745 9.65241 51.4111 8.66011C52.8683 8.34438 54.1433 8.43459 55.8737 7.93844C56.6478 7.71291 56.1925 6.81082 55.3273 6.90103C54.8264 6.94613 53.4603 7.03634 51.5477 6.90103C51.5932 5.41258 51.9575 4.46538 51.9575 2.93183C51.9575 2.52589 51.7754 2.21016 51.3656 2.21016C50.5459 2.21016 49.2709 2.48078 49.2709 3.6084C49.2709 4.78112 49.0432 5.81852 49.0887 6.99124C48.269 7.03634 47.5404 6.81082 46.7208 6.81082C46.1288 6.81082 45.9922 7.89333 45.9922 8.29927C45.9922 8.75032 46.0377 9.06605 46.3109 9.06605C47.4494 9.06605 48.4512 8.88563 48.9066 8.84053C48.6789 11.8174 48.3146 13.4863 48.0869 15.5611C47.9503 16.6436 47.7681 18.3576 47.7681 19.4401C47.7681 21.3796 49.453 22.9583 50.8646 22.9583C53.3692 22.9583 55.4183 17.9065 55.4183 15.8317C55.4183 15.7415 55.4183 15.6513 55.4183 15.5611C55.6916 14.3433 55.8737 13.1255 56.1014 12.0881C56.1469 11.9527 56.2836 11.5468 56.6479 11.5468C57.4675 11.5468 57.5586 12.1332 57.5586 12.7646C57.5586 14.4335 56.9666 17.4104 56.9666 19.1695C56.9666 20.8834 57.422 23.0034 59.4256 23.0034C61.1105 23.0034 62.4766 21.9208 63.2507 20.4775C63.7972 21.7855 64.7079 22.8229 65.9829 22.8229C67.2124 22.8229 68.2598 21.9208 68.9884 21.0639C69.1705 21.5149 69.4437 22.7327 70.7643 22.7327C71.9938 22.7327 72.9501 21.6953 73.6787 20.3873C74.0885 21.9208 75.4546 23.0034 76.6386 23.0034C78.0502 23.0034 79.3708 21.3345 80.1905 19.5303C80.2816 21.4247 81.3289 22.6876 82.6495 22.6876C84.0156 22.6876 85.154 21.6051 85.9281 20.252C86.7933 21.6502 88.1595 22.5974 89.9354 22.5974C92.4399 22.5974 93.9427 20.9737 95.2632 19.0342C95.7186 19.1244 96.1284 19.2597 96.5383 19.2597C97.4035 19.2597 98.2687 18.6733 98.9517 17.8614C98.8607 19.3048 98.7696 20.703 98.7696 21.966C98.7696 22.417 98.8607 22.5974 99.1794 22.6876C99.4982 22.8229 100.09 22.7327 100.454 22.7327C100.91 22.7327 101.001 22.7778 101.092 22.1915C101.138 21.7855 101.411 16.9593 101.411 16.5985C101.411 15.6062 103.824 11.4115 105.008 11.4115C105.236 11.4115 105.418 11.8174 105.418 12.0881C105.418 14.2531 104.735 17.7712 104.735 20.0265C104.735 22.417 105.919 23.2289 106.42 23.4995C106.784 23.725 107.831 24.0408 108.378 23.9957C108.56 23.8603 108.879 23.5897 108.56 23.4093ZM68.5786 18.8086C68.533 19.4401 67.3946 21.0639 66.5294 21.0639C65.5731 21.0639 65.1633 18.3576 65.2088 16.5534C65.2543 14.4335 66.3017 10.6447 67.3035 10.6447C68.6241 10.6447 68.8062 13.802 68.8062 14.7943C68.8062 15.9219 68.6696 17.681 68.5786 18.8086ZM94.7168 17.3202C94.1248 16.9593 93.7605 15.8317 93.7605 15.1552C93.7605 14.7492 93.8971 13.8471 94.4891 13.8471C95.0355 13.8471 95.2177 14.8394 95.2177 15.2454C95.2177 15.7866 94.8989 16.8691 94.7168 17.3202Z" fill="black" fill-opacity="0.3"/>
<path d="M119.034 18.0871C118.806 14.5239 113.387 10.6449 113.023 8.61518C112.932 8.07393 113.843 7.98372 113.752 7.53267C113.66 6.90121 113.114 6.90121 112.75 6.94632C110.701 7.17184 110.291 7.84841 110.109 9.15644C110.017 9.92322 110.518 10.5998 111.019 11.1861C111.065 12.7648 110.2 17.1399 109.198 18.8539C108.97 19.1697 108.651 19.6207 108.606 19.8913C108.515 20.4326 108.925 20.7032 109.289 20.3424C109.608 20.0717 109.562 19.8913 109.881 19.6658C110.609 21.3347 112.886 22.5074 114.617 22.5074C117.121 22.5074 119.17 20.7483 119.034 18.0871ZM113.66 20.7483C112.932 20.7483 111.793 20.2973 111.748 19.3501C111.702 18.8088 112.977 18.5382 113.433 18.2676C113.797 18.042 113.888 17.8616 113.888 17.7263C113.843 17.4106 113.387 17.1851 112.886 17.1851C112.476 17.1851 111.884 17.3204 111.201 17.7714C111.338 17.1399 112.294 13.8924 112.522 12.3138C114.298 13.6218 115.937 16.5987 116.119 18.8088C116.256 20.5679 114.252 20.7483 113.66 20.7483Z" fill="black" fill-opacity="0.3"/>
</svg>
