<svg width="189" height="39" viewBox="0 0 189 39" fill="none" xmlns="http://www.w3.org/2000/svg">
<path d="M3.46936 8.95117C4.77082 8.95117 6.14458 8.16342 6.14458 6.3731C6.14458 4.94084 5.27694 3.93826 3.61397 3.93826C1.87869 3.93826 0.866445 5.15568 0.938748 6.30149V6.3731C1.01105 8.0202 2.1679 8.95117 3.46936 8.95117Z" fill="black"/>
<path d="M64.7802 13.6781C64.6356 12.8187 66.0816 12.6755 65.937 11.9594C65.7924 10.9568 64.9248 10.9568 64.3464 11.0284C61.0929 11.3865 60.4422 12.4606 60.153 14.5374C60.0084 15.7548 60.8037 16.829 61.599 17.76C61.6713 18.8342 61.3821 20.6961 61.0206 22.6297C60.7314 22.7729 60.5145 22.9877 60.4422 23.2742C60.153 24.3484 59.5023 27.571 58.4901 30.2206C58.2009 30.6503 57.7672 31.2232 57.7672 31.5813C57.7672 31.7245 57.7672 31.8677 57.7672 31.9394C57.0442 33.3 56.2489 34.3026 55.309 34.3026C54.8752 34.3026 54.7306 33.1568 54.7306 31.6529C54.7306 29.0032 56.1043 21.6271 56.1043 20.0516C56.1043 17.9748 56.4658 16.1845 56.4658 14.4658C56.4658 13.7497 55.9597 13.5348 55.309 13.5348C54.8029 13.5348 54.5137 13.8929 54.0076 13.8929C51.9109 13.8929 51.6217 15.0387 51.6217 16.7574C51.6217 17.4736 51.6217 27.6426 51.4771 28.9316C51.3325 31.08 50.1034 33.7297 47.7898 33.7297C45.6932 33.7297 44.681 30.8652 44.681 27.7858C44.681 24.9929 45.1871 21.4839 45.5486 20.2665C45.7655 19.5503 46.7054 16.2561 46.7054 15.8265C46.7054 15.0387 46.6331 14.8239 45.7655 14.8239C42.4397 14.8955 41.789 15.1819 41.2829 16.9723C40.7768 19.049 40.1984 22.4865 40.1984 25.8523C40.1984 26.1387 40.1984 26.4968 40.1984 26.7832C39.4031 29.2181 38.5355 31.9394 36.2943 32.0826C34.776 32.1542 34.2699 28.3587 34.2699 24.42C34.2699 16.6142 36.5112 9.02323 36.8004 1.21742C36.8727 0.50129 36.3666 0 35.499 0C34.3422 0.143226 33.9807 0.0716129 33.4746 0.0716129C32.607 0.0716129 32.2455 0.429677 32.1732 1.28903C31.4502 9.09484 29.8596 18.6194 29.8596 26.2103C29.8596 26.2819 29.8596 26.2819 29.8596 26.3536C29.0643 28.86 28.1967 32.0826 25.8109 32.2258C24.2926 32.2974 23.7865 28.5019 23.7865 24.5632C23.7865 16.7574 26.0278 9.16645 26.317 1.36065C26.3892 0.644516 25.8832 0.143226 25.0156 0.143226C23.8588 0.143226 23.4973 0.0716129 22.9189 0.0716129C22.0513 0.0716129 21.6898 0.429677 21.6175 1.28903C20.8945 9.09484 19.3039 18.6194 19.3039 26.2103C19.3039 26.2819 19.3039 26.2819 19.3039 26.3536C18.5086 28.86 17.641 32.0826 15.2552 32.2258C13.7369 32.2974 13.2308 28.5019 13.2308 24.5632C13.2308 16.7574 15.4721 9.16645 15.7612 1.36065C15.8335 0.644516 15.3275 0.143226 14.4599 0.143226C13.2308 0.143226 12.8693 0.0716129 12.2909 0.0716129C11.4233 0.0716129 11.0618 0.429677 10.9895 1.28903C10.2665 9.09484 8.67592 18.6194 8.67592 26.2103C8.67592 26.5684 8.67592 26.9265 8.67592 27.3561C7.95292 29.8626 6.86843 32.5839 5.49475 32.5839C4.84405 32.5123 4.33796 31.5813 4.33796 29.4329C4.33796 25.4942 4.69946 20.0516 5.06095 15.8981C5.13325 15.3968 4.91635 14.8955 4.33796 14.8955C3.83186 14.8239 2.24128 14.6806 1.66288 14.6806C0.795292 14.6806 0.433796 15.1819 0.433796 16.1129V17.5452C0.506095 22.3432 0 26.1387 0 30.6503C0 33.8729 1.73518 36.0929 3.90416 36.0929C6.21774 36.0929 8.02522 34.1594 9.25431 31.8677C9.90501 34.3026 11.1341 36.451 13.5923 36.451C15.9058 36.451 18.1471 33.9445 19.6654 31.1516C20.2438 33.8729 21.4729 36.451 24.148 36.451C26.4615 36.451 28.7028 33.9445 30.2211 31.1516C30.7995 33.8729 32.0286 36.451 34.7037 36.451C36.945 36.451 39.1862 34.0161 40.7045 31.3665C41.4998 34.589 43.3073 37.0239 46.7054 37.0239C49.525 37.0239 50.3203 35.8781 52.1278 33.3C52.7062 34.7323 52.9231 37.4536 54.586 37.4536C56.8996 37.4536 58.8516 34.8039 60.153 31.7961C61.5267 34.1594 64.8525 35.8065 67.383 35.8065C71.2871 35.8065 74.6129 33.0135 74.3237 28.7884C73.9622 23.0594 65.4309 16.9006 64.7802 13.6781ZM65.7924 32.9419C64.6356 32.9419 62.8281 32.2258 62.7558 30.7219C62.6835 29.8626 64.7079 29.4329 65.4309 29.0032C66.0093 28.6452 66.1539 28.3587 66.1539 28.1439C66.0816 27.6426 65.3586 27.2845 64.5633 27.2845C63.9126 27.2845 62.9727 27.4994 61.8882 28.2155C62.1051 27.2129 63.6234 22.0568 63.9849 19.5503C66.8046 21.6271 69.4073 26.3535 69.6965 29.8626C69.9134 32.6555 66.7323 32.9419 65.7924 32.9419Z" fill="black"/>
<path d="M130.573 8.95117C131.875 8.95117 133.248 8.16342 133.248 6.3731C133.248 4.94084 132.381 3.93826 130.718 3.93826C128.982 3.93826 127.97 5.15568 128.042 6.30149V6.3731C128.115 8.0202 129.272 8.95117 130.573 8.95117Z" fill="black"/>
<path d="M172.361 37.1672C171.06 36.3078 170.12 34.9472 170.337 29.3614C170.482 25.7807 171.205 20.8394 171.205 17.3304C171.205 15.7549 170.482 13.9646 168.457 13.9646C165.927 13.9646 162.24 19.1207 161.083 21.4123C161.227 20.0517 161.661 16.0414 161.733 14.6807C161.806 13.3201 161.806 13.2484 159.42 13.2484C157.829 13.2484 157.685 13.5349 157.685 14.1078C157.685 17.402 157.395 21.1975 157.106 24.993C156.239 26.8549 155.082 28.7168 153.419 28.7168C152.913 28.7168 152.407 28.5736 151.973 28.3588C152.696 27.2846 153.202 24.8497 153.202 23.5607C153.202 21.5555 151.756 19.9801 149.732 19.9801C147.057 19.9801 145.466 21.842 145.466 24.4201C145.466 26.4252 147.563 28.7168 149.153 29.791C148.213 31.653 146.334 32.7988 144.165 32.7988C141.056 32.7988 139.971 27.1414 139.971 25.0646C139.971 21.0543 141.417 16.5426 146.189 16.5426C149.443 16.5426 149.443 18.691 150.816 18.691C150.961 18.691 151.395 18.4762 151.395 18.2614C151.395 15.8981 147.635 13.9646 145.683 13.9646C139.031 13.9646 134.404 19.1923 134.404 25.7091C134.404 26.9981 134.621 28.3588 135.055 29.6478C134.404 31.2949 133.609 32.5839 132.597 32.5839C131.946 32.5839 131.44 31.653 131.44 29.5046C131.44 25.5659 131.801 20.1233 132.163 15.9697C132.235 15.4685 132.018 14.9672 131.44 14.9672C130.934 14.8955 129.343 14.7523 128.765 14.7523C127.897 14.7523 127.536 15.2536 127.536 16.1846V17.6168C127.536 20.1233 127.391 22.2717 127.319 24.4201C127.247 24.4917 127.174 24.6349 127.102 24.7781C126.307 26.9265 125.295 32.8704 122.909 32.8704C122.186 32.8704 120.667 31.8678 120.667 29.0749C120.667 24.5633 122.186 15.5401 122.403 13.9646C124.716 13.4633 126.741 13.6065 129.488 12.8188C130.717 12.4607 129.994 11.0284 128.62 11.1717C127.825 11.2433 125.656 11.3865 122.619 11.1717C122.692 8.80845 123.27 7.30458 123.27 4.86974V4.6549C123.27 4.01038 122.981 3.50909 122.33 3.50909C121.029 3.50909 119.004 3.93877 119.004 5.72909C119.004 7.59103 118.643 9.23813 118.715 11.1001C117.414 11.1717 116.257 10.8136 114.956 10.8136C114.016 10.8136 113.799 12.5323 113.799 13.1768C113.799 13.893 113.871 14.3943 114.305 14.3943C116.113 14.3943 117.703 14.1078 118.426 14.0362C118.065 18.7626 117.486 21.4123 117.125 24.7065C117.125 24.9214 117.052 25.2078 117.052 25.4943C116.257 28.0007 114.739 31.8678 113.51 31.8678C113.004 31.8678 112.281 31.0801 112.281 30.5072C112.281 26.9981 112.642 22.6297 113.582 19.1207C113.799 18.4046 114.305 17.1155 114.305 16.3278C114.305 15.3968 112.787 14.8955 111.991 14.8955C110.69 14.8955 110.762 15.6117 110.256 16.7575C109.316 16.0414 109.099 14.7523 106.569 14.7523C101.942 14.7523 99.1222 22.2001 99.1222 26.8549C99.1222 27.6426 99.0499 28.0723 99.0499 28.502C99.0499 31.1517 97.5316 34.4459 95.941 34.4459C94.5673 34.4459 94.1335 30.722 94.1335 29.1465C94.1335 26.9265 95.1457 21.9852 96.0133 19.8368C96.3748 19.0491 97.0255 18.1897 97.0255 17.3304C97.0255 16.3278 95.8687 14.6807 94.7119 14.6807C93.4105 14.6807 92.6152 15.3968 91.2415 15.3968C89.0725 15.3968 87.6266 14.0362 86.3975 14.0362C85.6022 14.0362 85.1684 14.5375 85.1684 15.2536C85.1684 17.1872 87.2651 16.8291 86.759 19.2639C86.2529 21.5555 84.7346 27.7859 83.867 30.1491C83.7947 30.2207 83.7947 30.3639 83.7947 30.5072C83.7947 30.7936 83.867 31.0085 83.9393 31.2233C83.4332 32.0826 82.8548 32.6555 82.1318 32.6555C81.4088 32.6555 79.8905 31.653 79.8905 28.8601C79.8905 24.3485 81.4088 15.3252 81.6257 13.7497C83.9393 13.2484 85.9637 13.3917 88.7111 12.6039C89.9401 12.2459 89.2171 10.8136 87.8435 10.9568C87.0482 11.0284 84.8792 11.1717 81.8426 10.9568C81.9149 8.59361 82.4933 7.08974 82.4933 4.6549C82.4933 4.01038 82.2041 3.50909 81.5534 3.50909C80.252 3.50909 78.2276 3.93877 78.2276 5.72909C78.2276 7.59103 77.8662 9.23813 77.9385 11.1001C76.6371 11.1717 75.4803 10.8136 74.1789 10.8136C73.239 10.8136 73.0221 12.5323 73.0221 13.1768C73.0221 13.893 73.0944 14.3943 73.5282 14.3943C75.3357 14.3943 76.9263 14.1078 77.6493 14.0362C77.2878 18.7626 76.7094 21.4123 76.3479 24.7065C76.131 26.4252 75.8418 29.1465 75.8418 30.8652C75.8418 33.9446 78.5168 36.451 80.7581 36.451C84.7346 36.451 87.9881 28.4304 87.9881 25.1362C87.9881 24.993 87.9881 24.8497 87.9881 24.7065C88.4219 22.773 88.7111 20.8394 89.0725 19.1923C89.1448 18.9775 89.3617 18.333 89.9401 18.333C91.2415 18.333 91.3861 19.2639 91.3861 20.2665C91.3861 22.9162 90.4462 27.6426 90.4462 30.4355C90.4462 33.1568 91.1692 36.5226 94.3504 36.5226C97.0255 36.5226 99.1945 34.8039 100.424 32.5123C101.291 34.5891 102.737 36.2362 104.762 36.2362C106.714 36.2362 108.376 34.8039 109.533 33.4433C109.822 34.1594 110.256 36.093 112.353 36.093C114.305 36.093 115.823 34.4459 116.98 32.3691C117.631 34.8039 119.8 36.5226 121.68 36.5226C123.921 36.5226 126.018 33.873 127.319 31.0085C127.464 34.0162 129.126 36.0214 131.223 36.0214C133.392 36.0214 135.2 34.3026 136.429 32.1543C137.802 34.3743 139.971 35.8781 142.791 35.8781C146.767 35.8781 149.153 33.3001 151.25 30.2207C151.973 30.3639 152.624 30.5788 153.274 30.5788C154.648 30.5788 156.022 29.6478 157.106 28.3588C156.962 30.6504 156.817 32.8704 156.817 34.8755C156.817 35.5917 156.962 35.8781 157.468 36.0214C157.974 36.2362 158.914 36.093 159.492 36.093C160.215 36.093 160.36 36.1646 160.504 35.2336C160.577 34.5891 161.01 26.9265 161.01 26.3536C161.01 24.7781 164.842 18.1181 166.722 18.1181C167.084 18.1181 167.373 18.7626 167.373 19.1923C167.373 22.6297 166.288 28.2155 166.288 31.7962C166.288 35.5917 168.168 36.8807 168.963 37.3104C169.542 37.6684 171.205 38.1697 172.072 38.0981C172.361 37.8833 172.868 37.4536 172.361 37.1672ZM108.883 29.8626C108.81 30.8652 107.003 33.4433 105.629 33.4433C104.111 33.4433 103.46 29.1465 103.532 26.282C103.605 22.9162 105.268 16.9007 106.858 16.9007C108.955 16.9007 109.244 21.9136 109.244 23.4891C109.244 25.2794 109.027 28.0723 108.883 29.8626ZM150.382 27.4994C149.443 26.9265 148.864 25.1362 148.864 24.062C148.864 23.4175 149.081 21.9852 150.021 21.9852C150.889 21.9852 151.178 23.5607 151.178 24.2052C151.178 25.0646 150.672 26.7833 150.382 27.4994Z" fill="black"/>
<path d="M188.99 28.7165C188.628 23.0591 180.025 16.9004 179.446 13.6778C179.302 12.8184 180.748 12.6752 180.603 11.9591C180.459 10.9565 179.591 10.9565 179.013 11.0281C175.759 11.3862 175.108 12.4604 174.819 14.5372C174.675 15.7546 175.47 16.8288 176.265 17.7597C176.337 20.2662 174.964 27.2126 173.373 29.9339C173.012 30.4352 172.506 31.1513 172.433 31.581C172.289 32.4404 172.939 32.8701 173.518 32.2972C174.024 31.8675 173.952 31.581 174.458 31.223C175.614 33.8726 179.229 35.7346 181.977 35.7346C185.953 35.7346 189.207 32.9417 188.99 28.7165ZM180.459 32.9417C179.302 32.9417 177.494 32.2255 177.422 30.7217C177.35 29.8623 179.374 29.4326 180.097 29.003C180.675 28.6449 180.82 28.3584 180.82 28.1436C180.748 27.6423 180.025 27.2843 179.229 27.2843C178.579 27.2843 177.639 27.4991 176.554 28.2152C176.771 27.2126 178.29 22.0565 178.651 19.5501C181.471 21.6268 184.074 26.3533 184.363 29.8623C184.58 32.6552 181.398 32.9417 180.459 32.9417Z" fill="black"/>
</svg>
