<svg width="64" height="15" viewBox="0 0 64 15" fill="none" xmlns="http://www.w3.org/2000/svg">
<g opacity="0.3">
<path d="M1.54722 6.10885C1.54722 8.62817 3.58953 10.6705 6.10885 10.6705C7.92099 10.6705 9.39002 9.20145 9.39002 7.38931C9.39002 5.57716 7.921 4.10814 6.10885 4.10814C4.29671 4.10814 2.82768 5.57717 2.82768 7.38931C2.82768 8.31611 3.21193 9.15316 3.82981 9.74984C2.61899 8.99034 1.81398 7.64361 1.81397 6.10885C1.81397 5.67073 1.87957 5.24794 2.00149 4.84976C2.8527 3.47596 4.37392 2.56092 6.10885 2.56092C8.7755 2.56092 10.9372 4.72266 10.9372 7.38931C10.9372 10.056 8.7755 12.2177 6.10885 12.2177C2.73502 12.2177 0 9.48268 0 6.10885C0 2.73503 2.73502 0 6.10885 0C9.48267 0 12.2177 2.73503 12.2177 6.10885C12.2177 8.22553 11.1412 10.0908 9.50576 11.1869C10.5481 10.254 11.204 8.89824 11.204 7.3893C11.204 6.41841 10.9324 5.51095 10.4611 4.73872C9.87935 2.88886 8.15078 1.54722 6.10885 1.54722C3.58953 1.54722 1.54722 3.58953 1.54722 6.10885Z" fill="black" fill-opacity="0.65"/>
<path d="M36.0376 11.6989H37.7684V0H36.0376V11.6989Z" fill="black" fill-opacity="0.65"/>
<path fill-rule="evenodd" clip-rule="evenodd" d="M23.2356 8.42965H29.6139C29.646 8.20529 29.678 7.94887 29.678 7.70848C29.678 5.40075 28.0434 3.47763 25.6555 3.47763C23.1394 3.47763 21.4247 5.32062 21.4247 7.69246C21.4247 10.0964 23.1394 11.9073 25.7837 11.9073C27.3543 11.9073 28.5562 11.2502 29.2934 10.1605L27.8671 9.3271C27.4825 9.88801 26.7613 10.3207 25.7997 10.3207C24.5177 10.3207 23.508 9.67968 23.2356 8.42965ZM23.2196 7.01937C23.46 5.81742 24.3414 5.04818 25.6395 5.04818C26.6812 5.04818 27.6908 5.64113 27.9312 7.01937H23.2196Z" fill="black" fill-opacity="0.65"/>
<path d="M19.5198 3.68597L17.2922 9.77583L15.0486 3.68597H13.1575L16.2826 11.6989H18.2858L21.4109 3.68597H19.5198Z" fill="black" fill-opacity="0.65"/>
<path d="M32.6113 3.68597V5.03215C33.0921 3.94238 34.0696 3.54174 35.0793 3.54174V5.41677C33.9414 5.33664 32.6113 5.8655 32.6113 7.66041V11.6989H30.8805V3.68597H32.6113Z" fill="black" fill-opacity="0.65"/>
<path fill-rule="evenodd" clip-rule="evenodd" d="M45.8038 4.82381V3.68597H47.5346V11.6989H45.8038V10.5451C45.1948 11.3945 44.2492 11.9073 42.9992 11.9073C40.8197 11.9073 39.0088 10.0643 39.0088 7.69246C39.0088 5.30459 40.8197 3.47763 42.9992 3.47763C44.2492 3.47763 45.1948 3.99046 45.8038 4.82381ZM40.7396 7.69246C40.7396 9.18287 41.8293 10.2566 43.2717 10.2566C44.714 10.2566 45.8038 9.18287 45.8038 7.69246C45.8038 6.20204 44.714 5.1283 43.2717 5.1283C41.8293 5.1283 40.7396 6.20204 40.7396 7.69246Z" fill="black" fill-opacity="0.65"/>
<path d="M59.3042 10.0643L63.0383 4.83984V3.68597H57.1087V5.32062H60.6985L56.9484 10.5451V11.6989H63.1986V10.0643H59.3042Z" fill="black" fill-opacity="0.65"/>
<path d="M50.0381 15V13.3659H54.1279C54.261 13.3659 54.3436 13.3306 54.3944 13.2762C54.4464 13.2205 54.4808 13.1281 54.4808 12.981V10.6409C54.379 10.8471 54.1554 11.0987 53.9826 11.2415C53.7402 11.4418 53.4609 11.6087 53.1209 11.7403C52.7751 11.8741 52.3457 11.939 51.8362 11.939C51.2231 11.939 50.6723 11.802 50.1863 11.5259C49.7001 11.2496 49.319 10.8571 49.0436 10.3505C48.7675 9.84236 48.6313 9.2437 48.6313 8.55786V3.70228H50.4737V8.42965C50.4737 9.09852 50.6408 9.5762 50.9569 9.88271C51.2761 10.1817 51.7252 10.337 52.317 10.337C52.9664 10.337 53.4789 10.1217 53.8645 9.69548L53.8654 9.69456C54.26 9.26955 54.4648 8.64478 54.4648 7.80464V3.70228H56.3072V13.3176C56.3072 13.8185 56.1563 14.229 55.8471 14.5386C55.5473 14.8495 55.1356 15 54.6248 15H50.0381Z" fill="black" fill-opacity="0.65"/>
</g>
</svg>
